# xmcd
#
# Track frame offsets:
#	150
#	21695
#	35952
#	50896
#	68642
#	83455
#	95541
#	113242
#	123827
#	139514
#
# Disc length: 2056 seconds
#
# Revision: 3
# Processed by: cddbd v1.5.2PL0 Copyright (c) Steve Scherf et al.
# Submitted via: EasyCDDAExtractor 2010.6.0.0
#
DISCID=8a08060a
DTITLE=Raybon Brothers
DYEAR=1997
DGENRE=Country
TTITLE0=Butterfly Kisses
TTITLE1=The Way She's Looking
TTITLE2=Falling (Duet With Olivia Newton-John)
TTITLE3=Gettin' Ready For The World To End
TTITLE4=Baby Blue
TTITLE5=Your Love
TTITLE6=Every Fire
TTITLE7=Hello Love
TTITLE8=Just Tryin' To Keep The Woman I Got
TTITLE9=Tangled Up In Love
EXTD=Corrected Titles and Year
EXTT0=
EXTT1=
EXTT2=
EXTT3=
EXTT4=
EXTT5=
EXTT6=
EXTT7=
EXTT8=
EXTT9=
PLAYORDER=
